<?xml version="1.0" encoding="UTF-8"?><svg id="_レイヤー_2" xmlns="http://www.w3.org/2000/svg" viewBox="0 0 722.86 679.43"><defs><style>.cls-1{fill:#3eeae0;}</style></defs><g id="logo_完成_永久に動かすな"><path class="cls-1" d="m617.46,2.4c6.9,10.97,11.12,23.49,13.68,36.17,6.27,30.57.33,62.84-11.7,91.57-21.1,51.86-70.2,93.55-128.53,88.78-4.86-.41-9.72-.91-14.45-2.14-11.06-2.55-22.02-10.84-24.78-22.61-2.76-10.94.59-21.59,5.98-30.56,15.16-23.83,42.93-36.72,70.18-39.92,46.86-6.04,92.98,9.48,119.83,49.96,14.28,21.33,22,47,22.63,72.63.47,19.69-4.29,39.26-12.58,57.01-23.83,51.61-82.5,90.91-140.29,84.4-17.77-2.15-35.21-12.56-36.99-32.26-1.49-20.31,12.37-38.99,27.4-50.84,24.88-20.07,56.97-30.74,88.96-29.83,40.57,1.02,77.23,15.82,100.01,50.99,16.05,24.56,23.12,53.68,25.45,82.36,4.38,55.67-15.69,115.51-49.33,159.58-52.34,67.93-127.87,98.89-211.03,108.74-25.42,3.06-51.28,3.66-76.66,2.32,0,0-.03-.5-.03-.5,48.68-8.91,96.41-24.91,137.61-52.57,44.78-29.91,82.46-69.6,109.77-114.91,15.25-24.87,27.68-51.94,32.89-80.67,4.56-27.02,6.27-59.8-3.73-85.06-10.36-27.2-38.06-41.92-66.65-45.11-26.62-3.49-54.26,3.34-76.03,19.4-5.97,4.27-11.67,9.13-15.6,15.28-6.38,9.64-7.03,23.26,6.57,25.73,13.32,2.32,27.04-4.01,39.01-9.64,30.06-14.08,52.35-37.36,66.56-67.18,9.89-22.13,16.89-46.86,12.93-71.19-9.24-48.03-52.51-70.79-99.03-69.02-18.63.87-38.68,5.9-51.9,19.63-12.21,12.23-16.63,33.99,6.59,34.1,41.25.84,73.03-30.18,97-60.76,9.48-12.32,18.52-25.53,25.64-39.47,10.71-21.36,15.29-45.74,13.96-69.6-.51-8.19-1.58-16.48-3.79-24.6,0,0,.45-.22.45-.22h0Z"/><path class="cls-1" d="m468.18,7.01c-84.64-5.16-177.73,16.12-252.68,55.36-48.71,26.54-97.47,67.31-118.99,118.41-3.46,8.77-6.08,17.01-6.7,26.1-1.89,22.56,4.29,42.84,25.24,54.6,15.09,8.61,32.89,8.09,49.5,4.56,41.11-8.32,80.56-31.64,110.1-61.06,7.53-7.86,16.22-17.26,17.61-28.06.28-2.71.14-5.92-2.35-7.46-9.23-4.83-23.6,3.35-30.72,9.64-17.28,15.08-24.7,38.23-26.58,60.41-.1,1.16-.09,2.33-.02,3.52,1.15,14,8.38,28.69,22.42,33.97,20.02,7.24,46.31-5.11,64.89-13.88,33.41-16.99,63.22-40.46,89.98-66.94,0,0,.75.67.75.67-32.21,40.21-86.33,93.4-137.86,105.25-34.36,7.37-69.43-9.91-76.64-46.24-4.21-21.85,5.91-48.09,19.12-65.47,13.3-17.26,32.11-30.43,53.53-35.05,7.59-1.45,15.29-1.93,22.94.99,18.23,7.18,13.02,28.89,6.17,42.29-23.86,47.25-98.77,79.16-148.29,90.65-29.69,5.09-62.3,2.33-87.71-15.83-22.15-15.55-34.46-43.06-32.89-69.81,1.56-31.2,16.48-61.26,35.84-84.8,13.52-16.44,29.91-30.46,47.47-42.31,38.81-25.83,83.51-42.5,127.66-55.2C289.48,7.27,340.9.17,392.31,0c25.45.01,50.92,1.82,75.98,6.02,0,0-.12.99-.12.99h0Z"/><path class="cls-1" d="m7.02,651.03c-10.43-28.24-8.5-60.08.97-88.39,20.26-58.38,70.87-101.78,126.03-126.5,66.7-31.2,139.24-40.92,207.46-66.66,18.62-7.42,37.7-16.47,48.87-33.3,3.05-5.1,5.07-11.71-2.42-14.15-7.66-2.55-16.31-1.04-24.28,1.83-5.67,2.09-11.13,5.07-16.1,8.75-12.61,9.24-22.1,22.46-28.44,36.69-6.11,13.43-7.95,27.8-5.15,42.18,3.37,17.88,12.65,39.44,18.45,58.88,4.93,15.28,8.7,32.67,9.1,48.88,2.99,55.27-22.67,113.33-79.85,129.53-33.63,9.75-81.25,2.55-99.04-31.05-11.23-21.58-2.91-46.73,9.99-65.01,20.18-30.08,51.42-48.22,84.16-60.8,41.71-15.61,85.76-24.33,130.05-27.29,14.63-.82,29.35-.91,43.92.53,0,0,0,1,0,1-28.89,3.02-56.93,9.87-84.25,18.37-23.8,7.49-46.86,16.77-69.22,27.66-21.62,10.38-42.57,22.39-61.93,36.46-5.19,3.85-10.23,7.94-14.7,12.5-15.09,15.42-27.02,41.37-3.38,52.57,14.88,6.84,33.76,2.66,46.75-6.67,12.8-9.01,21.19-22.5,26.62-36.97,5.72-14.89,8.13-33.43,8.63-50.17.22-12.86.5-24.37-1.18-37.29-3.03-22.45-9.54-44.89-8.95-68.43.06-34.75,18.28-67.45,44.07-89.88,21.24-18.45,56.02-33.67,83.43-20.12,10.39,5.33,16.55,16.52,13.93,28.17-5.89,26.64-47.4,50.33-70.22,61.59-10.06,4.83-20.51,8.96-30.92,12.79-67.34,24.4-136.73,42.04-198.1,78.76-23.68,13.78-46.55,29.38-64.87,49.88-25.67,28.16-41.56,66.08-39.61,104.64.19,3.57.49,7.19,1.14,10.71,0,0-.95.3-.95.3h0Z"/></g></svg>