<?xml version="1.0" encoding="UTF-8"?><svg id="_レイヤー_2" xmlns="http://www.w3.org/2000/svg" viewBox="0 0 439.45 303.76"><defs><style>.cls-1{fill:#3eeae0;}</style></defs><g id="logo_完成_永久に動かすな"><path class="cls-1" d="m439.33,7.01c-84.64-5.16-177.73,16.12-252.68,55.36-48.71,26.54-97.47,67.31-118.99,118.41-3.46,8.77-6.08,17.01-6.7,26.1-1.89,22.56,4.29,42.84,25.24,54.6,15.09,8.61,32.89,8.09,49.5,4.56,41.11-8.32,80.56-31.64,110.1-61.06,7.53-7.86,16.22-17.26,17.61-28.06.28-2.71.14-5.92-2.35-7.46-9.23-4.83-23.6,3.35-30.72,9.64-17.28,15.08-24.7,38.23-26.58,60.41-.1,1.16-.09,2.33-.02,3.52,1.15,14,8.38,28.69,22.42,33.97,20.02,7.24,46.31-5.11,64.89-13.88,33.41-16.99,63.22-40.46,89.98-66.94,0,0,.75.67.75.67-32.21,40.21-86.33,93.4-137.86,105.25-34.36,7.37-69.43-9.91-76.64-46.24-4.21-21.85,5.91-48.09,19.12-65.47,13.3-17.26,32.11-30.43,53.53-35.05,7.59-1.45,15.29-1.93,22.94.99,18.23,7.18,13.02,28.89,6.17,42.29-23.86,47.25-98.77,79.16-148.29,90.65-29.69,5.09-62.3,2.33-87.71-15.83C10.88,257.87-1.43,230.37.13,203.61c1.56-31.2,16.48-61.26,35.84-84.8,13.52-16.44,29.91-30.46,47.47-42.31,38.81-25.83,83.51-42.5,127.66-55.2C260.63,7.27,312.05.17,363.47,0c25.45.01,50.92,1.82,75.98,6.02,0,0-.12.99-.12.99h0Z"/></g></svg>