<?xml version="1.0" encoding="UTF-8"?><svg id="_レイヤー_2" xmlns="http://www.w3.org/2000/svg" viewBox="0 0 337.64 677.03"><defs><style>.cls-1{fill:#3eeae0;}</style></defs><g id="logo_完成_永久に動かすな"><path class="cls-1" d="m232.24,0c6.9,10.97,11.12,23.49,13.68,36.17,6.27,30.57.33,62.84-11.7,91.57-21.1,51.86-70.2,93.55-128.53,88.78-4.86-.41-9.72-.91-14.45-2.14-11.06-2.55-22.02-10.84-24.78-22.61-2.76-10.94.59-21.59,5.98-30.56,15.16-23.83,42.93-36.72,70.18-39.92,46.86-6.04,92.98,9.48,119.83,49.96,14.28,21.33,22,47,22.63,72.63.47,19.69-4.29,39.26-12.58,57.01-23.83,51.61-82.5,90.91-140.29,84.4-17.77-2.15-35.21-12.56-36.99-32.26-1.49-20.31,12.37-38.99,27.4-50.84,24.88-20.07,56.97-30.74,88.96-29.83,40.57,1.02,77.23,15.82,100.01,50.99,16.05,24.56,23.12,53.68,25.45,82.36,4.38,55.67-15.69,115.51-49.33,159.58-52.34,67.93-127.87,98.89-211.03,108.74-25.42,3.06-51.28,3.66-76.66,2.32,0,0-.03-.5-.03-.5,48.68-8.91,96.41-24.91,137.61-52.57,44.78-29.91,82.46-69.6,109.77-114.91,15.25-24.87,27.68-51.94,32.89-80.67,4.56-27.02,6.27-59.8-3.73-85.06-10.36-27.2-38.06-41.92-66.65-45.11-26.62-3.49-54.26,3.34-76.03,19.4-5.97,4.27-11.67,9.13-15.6,15.28-6.38,9.64-7.03,23.26,6.57,25.73,13.32,2.32,27.04-4.01,39.01-9.64,30.06-14.08,52.35-37.36,66.56-67.18,9.89-22.13,16.89-46.86,12.93-71.19-9.24-48.03-52.51-70.79-99.03-69.02-18.63.87-38.68,5.9-51.9,19.63-12.21,12.23-16.63,33.99,6.59,34.1,41.25.84,73.03-30.18,97-60.76,9.48-12.32,18.52-25.53,25.64-39.47,10.71-21.36,15.29-45.74,13.96-69.6-.51-8.19-1.58-16.48-3.79-24.6,0,0,.45-.22.45-.22h0Z"/></g></svg>