<?xml version="1.0" encoding="UTF-8"?><svg id="_レイヤー_2" xmlns="http://www.w3.org/2000/svg" viewBox="0 0 64 64"><defs><style>.cls-1{fill:#fff;}.cls-2{fill:#291f1f;}</style></defs><g id="icon"><rect class="cls-2" width="64" height="64"/><path class="cls-1" d="m23.45,35.95c.66,0,1.21-.06,1.66-.17.45-.11.85-.27,1.22-.46l.55,1.93c-.39.2-.89.36-1.49.5-.6.14-1.34.21-2.21.21-.95,0-1.84-.15-2.66-.46-.82-.31-1.53-.75-2.12-1.33-.59-.58-1.06-1.29-1.4-2.14-.34-.85-.5-1.81-.5-2.89s.16-2,.48-2.85c.32-.85.78-1.56,1.38-2.15.59-.59,1.3-1.04,2.13-1.35.83-.31,1.74-.47,2.75-.47.89,0,1.63.08,2.21.23.57.15,1.06.34,1.47.55l-.59,1.93c-.42-.21-.85-.38-1.28-.5-.43-.13-.94-.19-1.51-.19s-1.14.09-1.67.26-.98.46-1.37.84-.69.88-.92,1.49c-.23.61-.35,1.35-.35,2.21s.11,1.56.34,2.17c.22.61.53,1.11.9,1.5.38.39.82.68,1.33.86.51.18,1.06.27,1.65.27Z"/><path class="cls-1" d="m33.16,24.32c.78,0,1.49.07,2.13.22.64.15,1.22.35,1.75.62l-.59,1.97c-.57-.28-1.12-.49-1.64-.63s-1.03-.21-1.53-.21c-.71,0-1.27.15-1.67.44-.4.29-.6.69-.6,1.2s.16.86.49,1.12c.33.26.86.51,1.58.75l1.28.42c1.09.36,1.93.87,2.5,1.51.57.64.86,1.41.86,2.29,0,.57-.11,1.1-.34,1.58-.22.48-.55.89-.97,1.25-.42.36-.93.63-1.54.83-.61.2-1.3.29-2.07.29s-1.49-.07-2.21-.22c-.71-.15-1.4-.38-2.06-.7l.59-1.95c.6.29,1.19.52,1.76.67.57.15,1.18.23,1.81.23.76,0,1.35-.15,1.77-.44.43-.29.64-.72.64-1.28,0-.2-.04-.38-.1-.57-.07-.18-.19-.35-.37-.51-.17-.16-.41-.32-.71-.46-.3-.15-.69-.3-1.17-.45l-1.18-.4c-.97-.34-1.74-.78-2.32-1.33-.58-.55-.87-1.33-.87-2.34,0-1.16.41-2.1,1.22-2.81.81-.71,1.99-1.07,3.53-1.07Z"/><path class="cls-1" d="m44.2,24.32c.78,0,1.49.07,2.13.22.64.15,1.22.35,1.75.62l-.59,1.97c-.57-.28-1.12-.49-1.64-.63-.52-.14-1.03-.21-1.53-.21-.71,0-1.27.15-1.67.44-.4.29-.6.69-.6,1.2s.17.86.49,1.12c.33.26.86.51,1.59.75l1.28.42c1.09.36,1.92.87,2.5,1.51.57.64.86,1.41.86,2.29,0,.57-.11,1.1-.34,1.58-.22.48-.55.89-.97,1.25-.42.36-.93.63-1.54.83s-1.3.29-2.07.29-1.49-.07-2.21-.22c-.71-.15-1.4-.38-2.06-.7l.59-1.95c.6.29,1.19.52,1.76.67.57.15,1.18.23,1.81.23.76,0,1.35-.15,1.78-.44.43-.29.64-.72.64-1.28,0-.2-.04-.38-.11-.57s-.19-.35-.37-.51c-.18-.16-.41-.32-.71-.46-.3-.15-.69-.3-1.17-.45l-1.18-.4c-.97-.34-1.74-.78-2.32-1.33-.58-.55-.87-1.33-.87-2.34,0-1.16.41-2.1,1.22-2.81.81-.71,1.99-1.07,3.53-1.07Z"/></g></svg>