<?xml version="1.0" encoding="UTF-8"?><svg id="_レイヤー_2" xmlns="http://www.w3.org/2000/svg" viewBox="0 0 64 64"><defs><style>.cls-1{fill:#fff;}.cls-2{fill:#291f1f;}</style></defs><g id="icon"><rect class="cls-2" width="64" height="64"/><path class="cls-1" d="m8.5,37.76v-13.23h2.56v5.36h5.44v-5.36h2.56v13.23h-2.56v-5.82h-5.44v5.82h-2.56Z"/><path class="cls-1" d="m31.01,24.53v2.06h-3.88v11.17h-2.56v-11.17h-3.78v-2.06h10.23Z"/><path class="cls-1" d="m33.55,24.53h3.25l2.1,6.59c.18.57.35,1.14.51,1.71.16.57.3,1.12.43,1.67h.08c.06-.24.12-.5.2-.79.08-.29.16-.58.24-.88.08-.3.16-.6.24-.89s.16-.57.24-.82l2.04-6.59h3.26l1.05,13.23h-2.46c-.11-1.44-.21-2.88-.3-4.32-.09-1.43-.15-2.87-.18-4.32l-.06-2.08h-.06c-.21.83-.43,1.67-.67,2.54s-.48,1.66-.71,2.37l-1.85,5.8h-2.08l-1.89-5.8c-.32-.98-.59-1.88-.81-2.7-.22-.82-.4-1.56-.56-2.22h-.04c-.03,1.09-.07,2.23-.14,3.42-.06,1.19-.13,2.29-.2,3.3l-.23,3.99h-2.42l1.01-13.23Z"/><path class="cls-1" d="m50.08,24.53h2.56v11.17h5.44v2.06h-8v-13.23Z"/></g></svg>