<?xml version="1.0" encoding="UTF-8"?><svg id="_レイヤー_2" xmlns="http://www.w3.org/2000/svg" viewBox="0 0 64 64"><defs><style>.cls-1{fill:#fff;}.cls-2{fill:#291f1f;}</style></defs><g id="icon"><rect class="cls-2" width="64" height="64"/><path class="cls-1" d="m18.49,15.53v10.82c0,1.06-.06,1.93-.19,2.59s-.4,1.26-.82,1.77c-.45.56-1.02.95-1.7,1.18s-1.41.34-2.16.34v-2c.39,0,.72-.06,1-.18.27-.12.51-.28.7-.47.25-.24.42-.55.49-.92.08-.38.12-.79.12-1.24v-11.89h2.56Z"/><path class="cls-1" d="m21.41,19.67c.62-.34,1.24-.6,1.87-.79.63-.19,1.32-.28,2.08-.28.59,0,1.12.07,1.6.2.48.13.89.35,1.24.64.35.29.62.68.81,1.14.19.47.28,1.04.28,1.71v6.47h-1.95l-.25-1.05h-.06c-.71.84-1.73,1.26-3.04,1.26-1.05,0-1.87-.28-2.46-.83-.59-.55-.88-1.27-.88-2.15,0-.56.12-1.04.36-1.45.24-.41.56-.74.98-1.01.41-.27.91-.47,1.48-.6s1.2-.2,1.87-.2h1.47v-.69c0-.55-.16-.93-.48-1.17-.32-.23-.76-.35-1.3-.35-.39,0-.81.06-1.25.19s-.93.34-1.46.65l-.88-1.7Zm5.4,4.64l-1.13.04c-.92.03-1.57.19-1.93.47-.36.29-.55.63-.55,1.04,0,.52.15.87.46,1.05s.67.27,1.07.27.79-.1,1.17-.3c.37-.2.68-.49.91-.85v-1.72Z"/><path class="cls-1" d="m37.91,18.79h2.65l-3.61,9.97h-2.75l-3.53-9.97h2.65l1.72,5.61.54,2.52h.08l.53-2.52,1.72-5.61Z"/><path class="cls-1" d="m42.24,19.67c.62-.34,1.24-.6,1.87-.79.63-.19,1.32-.28,2.08-.28.59,0,1.12.07,1.6.2.48.13.89.35,1.24.64s.62.68.81,1.14c.19.47.28,1.04.28,1.71v6.47h-1.95l-.25-1.05h-.06c-.71.84-1.73,1.26-3.04,1.26-1.05,0-1.87-.28-2.46-.83-.59-.55-.88-1.27-.88-2.15,0-.56.12-1.04.36-1.45.24-.41.56-.74.98-1.01.41-.27.91-.47,1.48-.6s1.2-.2,1.87-.2h1.47v-.69c0-.55-.16-.93-.48-1.17-.32-.23-.76-.35-1.3-.35-.39,0-.81.06-1.25.19-.44.13-.93.34-1.46.65l-.88-1.7Zm5.4,4.64l-1.13.04c-.92.03-1.57.19-1.93.47-.36.29-.55.63-.55,1.04,0,.52.15.87.46,1.05.31.18.66.27,1.07.27s.79-.1,1.17-.3c.37-.2.68-.49.91-.85v-1.72Z"/><path class="cls-1" d="m10.78,33.32c.78,0,1.49.07,2.13.22.64.15,1.22.35,1.75.62l-.59,1.97c-.57-.28-1.12-.49-1.64-.63s-1.03-.21-1.53-.21c-.71,0-1.27.15-1.67.44-.4.29-.6.69-.6,1.2s.16.86.49,1.12c.33.26.86.51,1.58.75l1.28.42c1.09.36,1.93.87,2.5,1.51.57.64.86,1.41.86,2.29,0,.57-.11,1.1-.34,1.58-.22.48-.55.89-.97,1.25-.42.36-.93.63-1.54.83-.61.2-1.3.29-2.07.29s-1.49-.07-2.21-.22c-.71-.15-1.4-.38-2.06-.7l.59-1.95c.6.29,1.19.52,1.76.67.57.15,1.18.23,1.81.23.76,0,1.35-.15,1.77-.44.43-.29.64-.72.64-1.28,0-.2-.04-.38-.1-.57-.07-.18-.19-.35-.37-.51-.17-.16-.41-.32-.71-.46-.3-.15-.69-.3-1.17-.45l-1.18-.4c-.97-.34-1.74-.78-2.32-1.33-.58-.55-.87-1.33-.87-2.34,0-1.16.41-2.1,1.22-2.81.81-.71,1.99-1.07,3.53-1.07Z"/><path class="cls-1" d="m22.58,45.12c.45,0,.84-.05,1.19-.16.34-.1.63-.22.87-.35l.48,1.74c-.31.15-.71.29-1.22.42-.5.13-1.06.19-1.66.19-.74,0-1.44-.11-2.08-.33-.64-.22-1.21-.54-1.68-.98s-.85-.97-1.12-1.62c-.27-.64-.41-1.39-.41-2.25,0-.78.13-1.5.39-2.14.26-.64.62-1.19,1.09-1.65s1.03-.81,1.68-1.05c.65-.24,1.37-.37,2.15-.37.43,0,.88.04,1.34.13s.96.25,1.49.5l-.52,1.76c-.32-.18-.65-.32-.99-.42-.34-.1-.69-.15-1.05-.15-.92,0-1.67.28-2.23.85-.56.57-.84,1.39-.84,2.47,0,.63.09,1.16.27,1.6s.42.78.71,1.05c.29.27.63.46,1,.57s.75.17,1.12.17Z"/><path class="cls-1" d="m27.05,46.76v-9.97h1.91l.32,1.87c.24-.57.62-1.06,1.13-1.46.52-.4,1.16-.6,1.93-.6.34,0,.63.04.88.11.25.07.46.15.63.23l-.42,2.02c-.15-.08-.34-.16-.57-.22-.22-.06-.5-.09-.82-.09-.71,0-1.32.25-1.81.74-.49.49-.74,1.27-.74,2.33v5.06h-2.46Z"/><path class="cls-1" d="m36.61,34.5c-.43,0-.77-.13-1.02-.38-.25-.25-.37-.57-.37-.95s.12-.68.38-.93.59-.39,1.01-.39.74.13.99.38c.25.25.38.57.38.95s-.12.69-.38.95c-.25.25-.58.38-.99.38Zm-1.24,12.26v-9.97h2.48v9.97h-2.48Z"/><path class="cls-1" d="m45.24,46.97c-.41,0-.79-.05-1.17-.15-.37-.1-.68-.23-.93-.4v5.17h-2.46v-14.87h1.91l.29,1.18c.39-.38.84-.69,1.34-.93.5-.24,1.08-.37,1.72-.37,1.32,0,2.36.44,3.12,1.31s1.14,2.1,1.14,3.67c0,.9-.14,1.68-.41,2.35s-.64,1.24-1.09,1.69c-.46.46-.98.79-1.59,1.02s-1.23.34-1.89.34Zm.08-8.46c-.5,0-.94.12-1.32.37-.38.25-.67.49-.86.72v4.96c.24.2.51.34.82.43s.63.14.97.14.67-.06.99-.19c.32-.13.61-.33.87-.6.26-.27.47-.63.63-1.07.16-.44.24-.98.24-1.63,0-.92-.19-1.68-.58-2.26-.38-.58-.97-.87-1.75-.87Z"/><path class="cls-1" d="m57.99,38.59h-2.75v5c0,.48.12.8.35.98s.53.26.89.26c.28,0,.57-.03.88-.08.31-.06.57-.13.78-.23l.38,1.76c-.27.11-.63.22-1.08.33-.46.1-.94.16-1.46.16-1.13,0-1.95-.23-2.45-.69-.5-.46-.75-1.15-.75-2.08v-5.4h-1.51v-1.81h1.51v-3.11h2.46v3.11h2.75v1.81Z"/></g></svg>