<?xml version="1.0" encoding="UTF-8"?><svg id="_レイヤー_2" xmlns="http://www.w3.org/2000/svg" viewBox="0 0 64 64"><defs><style>.cls-1{fill:#fff;}.cls-2{fill:#291f1f;}</style></defs><g id="icon"><rect class="cls-2" width="64" height="64"/><path class="cls-1" d="m15.08,17.64h9.16c1.52,0,2.9.19,4.13.56,1.23.37,2.29.91,3.18,1.61.89.7,1.57,1.56,2.04,2.58.47,1.02.71,2.19.71,3.5,0,1.52-.27,2.82-.82,3.91-.54,1.09-1.29,2-2.24,2.73-.95.73-2.06,1.27-3.35,1.61s-2.68.52-4.17.52h-3.4v10.06h-5.25v-27.09Zm5.25,12.94h2.41c.86,0,1.66-.07,2.41-.21.75-.14,1.4-.39,1.96-.73.56-.34,1-.8,1.31-1.38s.47-1.29.47-2.15c0-.77-.14-1.44-.43-2-.29-.56-.68-1.02-1.18-1.38-.5-.36-1.08-.62-1.74-.8-.66-.17-1.35-.26-2.06-.26h-3.14v8.9Z"/><path class="cls-1" d="m51.11,28.86c-1.69-.8-3.34-1.2-4.94-1.2-1.06,0-1.87.19-2.43.56-.56.37-.84.89-.84,1.55,0,.54.23,1.01.69,1.4.46.39,1.38.78,2.75,1.18l1.29.39c1.83.54,3.22,1.29,4.15,2.24.93.95,1.4,2.19,1.4,3.74,0,1.98-.75,3.55-2.24,4.71s-3.53,1.74-6.11,1.74c-2.78,0-5.09-.46-6.92-1.38l1.12-3.78c.83.4,1.71.73,2.64.99.93.26,1.9.39,2.9.39,2.38,0,3.57-.76,3.57-2.28,0-.69-.28-1.2-.84-1.55-.56-.34-1.51-.72-2.86-1.12l-1.33-.43c-1.78-.57-3.09-1.33-3.93-2.26-.85-.93-1.27-2.16-1.27-3.68,0-.89.19-1.71.56-2.47.37-.76.9-1.41,1.57-1.96.67-.54,1.49-.97,2.45-1.27.96-.3,2.03-.45,3.2-.45s2.31.11,3.42.32c1.1.21,2.13.54,3.08.97l-1.08,3.66Z"/></g></svg>