<?xml version="1.0" encoding="UTF-8"?><svg id="_レイヤー_2" xmlns="http://www.w3.org/2000/svg" viewBox="0 0 64 64"><defs><style>.cls-1{fill:#fff;}.cls-2{fill:#291f1f;}</style></defs><g id="icon"><rect class="cls-2" width="64" height="64"/><path class="cls-1" d="m23.46,17.64h5.25l10.28,27.09h-5.55l-2.41-6.67h-10.1l-2.41,6.67h-5.46l10.41-27.09Zm-1.29,16.51h7.53l-1.42-4c-.4-1.2-.78-2.34-1.14-3.4-.36-1.06-.72-2.22-1.1-3.48h-.09c-.4,1.18-.79,2.32-1.16,3.42-.37,1.1-.77,2.26-1.2,3.46l-1.42,4Z"/><path class="cls-1" d="m45.05,19.61c-.89,0-1.58-.26-2.09-.77-.5-.52-.75-1.16-.75-1.94s.26-1.38.77-1.91c.52-.53,1.2-.8,2.06-.8s1.5.26,2.02.77c.52.52.77,1.16.77,1.93s-.26,1.42-.77,1.94c-.52.52-1.19.77-2.02.77Zm-2.54,25.11v-20.42h5.07v20.42h-5.07Z"/></g></svg>