<?xml version="1.0" encoding="UTF-8"?><svg id="_レイヤー_2" xmlns="http://www.w3.org/2000/svg" viewBox="0 0 64 64"><defs><style>.cls-1{fill:#f0f0ee;}.cls-2{fill:#fff;}.cls-3{fill:#b2b2ab;}.cls-4{fill:#e0e0dd;}.cls-5{fill:#291f1f;}</style></defs><g id="icon"><rect class="cls-5" width="64" height="64"/><circle class="cls-2" cx="40" cy="32" r="8"/><path class="cls-4" d="m23.88,24c-4.35,0-7.88,3.53-7.88,7.88v.24c0,4.35,3.53,7.88,7.88,7.88h8.12v-16h-8.12Z"/><path class="cls-2" d="m23.88,40h8.12v7.88c0,4.49-3.64,8.12-8.12,8.12h0c-4.35,0-7.88-3.53-7.88-7.88v-.24c0-4.35,3.53-7.88,7.88-7.88Z"/><path class="cls-3" d="m23.88,8c-4.35,0-7.88,3.53-7.88,7.88v.24c0,4.35,3.53,7.88,7.88,7.88h8.12V8h-8.12Z"/><path class="cls-1" d="m40.12,8h-8.12v16h8.12c4.35,0,7.88-3.53,7.88-7.88v-.24c0-4.35-3.53-7.88-7.88-7.88Z"/></g></svg>