<?xml version="1.0" encoding="UTF-8"?><svg id="_レイヤー_2" xmlns="http://www.w3.org/2000/svg" viewBox="0 0 64 64"><defs><style>.cls-1{fill:#fff;}.cls-2{fill:#291f1f;}</style></defs><g id="icon"><rect class="cls-2" width="64" height="64"/><path class="cls-1" d="m23.17,17.64v27.09h-5.25v-27.09h5.25Z"/><path class="cls-1" d="m42.26,14.11h5.07v30.62h-3.78l-.56-2.24h-.17c-.66.77-1.46,1.41-2.41,1.91-.95.5-2.17.75-3.66.75-1.2,0-2.35-.23-3.44-.69s-2.04-1.14-2.86-2.04c-.82-.9-1.46-2.01-1.94-3.33-.47-1.32-.71-2.84-.71-4.56,0-1.6.21-3.06.62-4.36.42-1.3,1.03-2.42,1.83-3.35s1.79-1.65,2.95-2.15c1.16-.5,2.47-.75,3.93-.75,1,0,1.96.15,2.86.45s1.66.72,2.26,1.27v-11.52Zm0,15.44c-.49-.57-1.06-1.03-1.72-1.38-.66-.34-1.39-.52-2.19-.52-.72,0-1.4.12-2.04.37-.64.24-1.22.64-1.72,1.18-.5.54-.9,1.25-1.2,2.11s-.45,1.89-.45,3.1.14,2.25.41,3.14.64,1.61,1.1,2.17c.46.56,1,.98,1.61,1.25.62.27,1.27.41,1.96.41.95,0,1.78-.22,2.49-.67.72-.44,1.3-1.02,1.76-1.74v-9.42Z"/></g></svg>