<?xml version="1.0" encoding="UTF-8"?><svg id="_レイヤー_2" xmlns="http://www.w3.org/2000/svg" viewBox="0 0 64 64"><defs><style>.cls-1{fill:#fff;}.cls-2{fill:#291f1f;}</style></defs><g id="icon"><rect class="cls-2" width="64" height="64"/><path class="cls-1" d="m18.23,15.53h4.64c.77,0,1.47.09,2.09.27.62.18,1.16.45,1.6.8.44.35.78.77,1.02,1.27.24.5.36,1.07.36,1.71,0,.76-.14,1.41-.42,1.95s-.66,1-1.14,1.35c-.48.36-1.05.62-1.69.8-.64.17-1.33.26-2.06.26h-1.51v4.81h-2.88v-13.23Zm2.88,6.22h1.18c.36,0,.71-.03,1.04-.09.33-.06.62-.17.86-.34.25-.16.44-.37.58-.63.14-.26.21-.58.21-.98,0-.69-.23-1.19-.69-1.51-.46-.32-1.05-.48-1.76-.48h-1.41v4.03Z"/><path class="cls-1" d="m29.8,28.76v-10.02h2.16l.31,1.81c.24-.53.62-1,1.13-1.41.52-.41,1.17-.61,1.95-.61.32,0,.61.04.86.1.25.07.46.15.63.25l-.46,2.21c-.15-.08-.35-.16-.59-.22-.24-.06-.52-.09-.84-.09-.69,0-1.26.23-1.71.68-.46.46-.68,1.2-.68,2.24v5.06h-2.77Z"/><path class="cls-1" d="m47.74,23.68c0,.83-.13,1.57-.4,2.23-.27.66-.63,1.21-1.1,1.67-.47.46-1.02.81-1.65,1.05-.63.25-1.31.37-2.04.37s-1.4-.11-2.03-.34c-.62-.22-1.16-.55-1.62-.99s-.81-.97-1.07-1.61c-.26-.64-.39-1.36-.39-2.17,0-.85.13-1.61.4-2.28.27-.67.63-1.22,1.1-1.68.47-.46,1.02-.8,1.65-1.04.63-.24,1.31-.36,2.04-.36s1.4.11,2.03.34c.62.22,1.16.55,1.62.98.46.43.81.96,1.07,1.61.26.64.39,1.39.39,2.23Zm-2.88.11c0-.57-.06-1.06-.19-1.47-.13-.41-.29-.73-.5-.99-.21-.25-.46-.44-.74-.56s-.57-.18-.86-.18-.57.05-.84.16c-.27.11-.5.28-.71.53s-.38.57-.5.98c-.13.41-.19.92-.19,1.53,0,.55.06,1.02.19,1.42.12.4.3.72.51.98s.46.44.74.57c.27.13.56.19.85.19s.57-.05.84-.16c.27-.11.5-.28.71-.54.21-.25.38-.58.5-.98.12-.4.19-.89.19-1.48Z"/><path class="cls-1" d="m10.02,45.52c.45,0,.84-.05,1.18-.15s.67-.22.99-.38l.4,1.39c-.76.38-1.66.57-2.71.57-.71,0-1.38-.11-2.01-.32s-1.17-.53-1.64-.96c-.47-.43-.84-.96-1.1-1.6-.27-.64-.4-1.38-.4-2.24,0-.78.13-1.49.38-2.12s.6-1.17,1.05-1.61c.45-.44.99-.78,1.62-1.02.63-.24,1.32-.36,2.08-.36.43,0,.86.03,1.27.09.41.06.89.21,1.42.45l-.42,1.41c-.64-.36-1.34-.55-2.08-.55-1.02,0-1.85.32-2.48.96-.63.64-.95,1.53-.95,2.68,0,.71.1,1.31.29,1.78.2.48.46.86.78,1.14.32.29.69.49,1.09.62.41.13.82.19,1.24.19Z"/><path class="cls-1" d="m14.58,46.76v-9.87h1.39l.31,1.97c.24-.63.63-1.14,1.18-1.53.55-.39,1.18-.59,1.89-.59.36,0,.66.03.9.08.24.06.46.13.65.21l-.36,1.62c-.17-.08-.35-.15-.56-.21-.2-.06-.45-.08-.72-.08-.41,0-.78.07-1.12.21-.34.14-.64.35-.9.63-.26.28-.46.63-.61,1.04s-.22.89-.22,1.42v5.1h-1.83Z"/><path class="cls-1" d="m30.83,42.04h-7.08v.08c0,1.09.3,1.93.89,2.52.59.59,1.4.88,2.42.88.53,0,1-.04,1.42-.13.41-.08.87-.22,1.36-.42l.38,1.37c-.41.18-.89.33-1.44.44-.55.11-1.14.17-1.78.17-.71,0-1.38-.1-2-.29-.62-.2-1.17-.5-1.65-.91s-.85-.94-1.12-1.58c-.27-.64-.41-1.41-.41-2.31,0-.77.12-1.47.35-2.1s.56-1.17.98-1.61c.42-.44.93-.78,1.52-1.03s1.26-.37,2-.37c.63,0,1.2.1,1.71.31s.95.5,1.31.88.64.83.84,1.37c.2.53.29,1.12.29,1.76v.97Zm-1.91-1.32c0-.36-.05-.7-.14-1.02-.09-.32-.23-.59-.42-.83-.19-.24-.43-.43-.72-.57-.29-.14-.65-.21-1.07-.21-.77,0-1.4.25-1.88.73-.48.49-.78,1.13-.89,1.93l5.12-.04Z"/><path class="cls-1" d="m33.12,37.77c.34-.17.65-.32.95-.45s.59-.24.88-.33.59-.15.9-.19c.31-.04.64-.06,1.01-.06.55,0,1.05.06,1.5.18.45.12.85.32,1.18.6.33.28.58.65.77,1.1.18.46.27,1.03.27,1.71v6.43h-1.53l-.23-1.09h-.04c-.43.46-.91.79-1.43.99-.52.2-1.09.29-1.72.29-.48,0-.91-.07-1.31-.2-.4-.13-.75-.32-1.04-.57s-.52-.54-.68-.89c-.16-.35-.24-.74-.24-1.18,0-1.04.41-1.82,1.23-2.36.82-.54,1.9-.81,3.25-.81h1.89v-.84c0-.71-.18-1.2-.54-1.46-.37-.26-.86-.39-1.47-.39-.36,0-.78.06-1.25.18s-1,.35-1.61.68l-.71-1.34Zm5.61,4.43l-1.55.04c-1.05.03-1.79.21-2.24.56-.44.34-.66.76-.66,1.25,0,.29.05.54.15.75.1.2.23.36.39.47.16.11.35.19.57.24.22.05.44.07.68.07.46,0,.93-.11,1.41-.33.48-.22.9-.56,1.26-1.04v-2.02Z"/><path class="cls-1" d="m48.47,38.28h-2.9v5.73c0,.49.12.82.37.99.25.17.56.25.96.25.28,0,.59-.03.92-.09.34-.06.63-.14.88-.22l.29,1.41c-.28.11-.64.21-1.07.29-.43.08-.89.13-1.36.13-.98,0-1.69-.21-2.14-.64-.45-.43-.67-1.05-.67-1.86v-5.99h-1.47v-1.39h1.47v-3.15h1.83v3.15h2.9v1.39Z"/><path class="cls-1" d="m59.33,42.04h-7.08v.08c0,1.09.3,1.93.89,2.52.6.59,1.4.88,2.43.88.53,0,1-.04,1.42-.13.41-.08.86-.22,1.35-.42l.38,1.37c-.41.18-.89.33-1.44.44-.55.11-1.14.17-1.77.17-.71,0-1.38-.1-2.01-.29-.62-.2-1.17-.5-1.65-.91-.48-.41-.85-.94-1.12-1.58-.27-.64-.41-1.41-.41-2.31,0-.77.12-1.47.35-2.1s.56-1.17.98-1.61c.42-.44.93-.78,1.52-1.03.59-.25,1.26-.37,2.01-.37.63,0,1.2.1,1.71.31s.95.5,1.31.88.64.83.84,1.37c.2.53.29,1.12.29,1.76v.97Zm-1.91-1.32c0-.36-.04-.7-.14-1.02-.09-.32-.23-.59-.42-.83-.19-.24-.43-.43-.72-.57s-.65-.21-1.07-.21c-.77,0-1.4.25-1.88.73-.48.49-.78,1.13-.89,1.93l5.12-.04Z"/></g></svg>