<?xml version="1.0" encoding="UTF-8"?><svg id="_レイヤー_2" xmlns="http://www.w3.org/2000/svg" viewBox="0 0 47.44 59.96"><defs><style>.cls-1{fill:#281e1e;}</style></defs><g id="icon"><path class="cls-1" d="m39.79,12.66l-6.29,8.98-4.49-3.14c-2.48-1.74-1.67-7.16,1.8-12.12S39.11-1.2,41.59.54s1.67,7.16-1.8,12.12Z"/><path class="cls-1" d="m12.21,52.04l6.29-8.98s-2.81-1.96-4.49-3.14c-2.48-1.74-7.3.88-10.77,5.83s-4.28,10.38-1.8,12.12,7.3-.88,10.77-5.83Z"/><path class="cls-1" d="m41.59.54c12.01,10.82,2.96,29.2-4.28,39.73-7.42,10.4-21.61,25.19-35.88,17.61,0,0,9.98-14.25,9.98-14.25-.24,0-.45.03-.6.12-.51.45.63.67,1.33.64,6.08-.77,11.4-6.03,15.11-11.16,3.55-5.24,6.68-12.04,5.32-18.02-.21-.7-.81-1.64-1.05-1.03-.04.17,0,.38.09.6L41.59.54h0Z"/></g></svg>