<?xml version="1.0" encoding="UTF-8"?><svg id="_レイヤー_2" xmlns="http://www.w3.org/2000/svg" viewBox="0 0 64 64"><defs><style>.cls-1{fill:#fff;}.cls-2{fill:#291f1f;}</style></defs><g id="icon"><rect class="cls-2" width="64" height="64"/><path class="cls-1" d="m53.44,49.13c.64-.35,1.03-1.02,1.03-1.75v-30.78c0-.73-.4-1.4-1.03-1.75l-9.87-5.17c-.71-.33-1.55-.2-2.14.32l-18.53,16.35-7.43-5.7c-.79-.61-1.91-.53-2.61.17l-2.74,2.74c-.81.81-.77,2.14.09,2.89l6.29,5.55-6.29,5.55c-.86.76-.9,2.08-.09,2.89l2.74,2.74c.7.7,1.82.78,2.61.17l7.43-5.7,18.53,16.35c.59.52,1.43.64,2.14.32l9.87-5.19Zm-23.17-17.13l12.96-9.93v19.87l-12.96-9.93Z"/></g></svg>