<?xml version="1.0" standalone="no"?>
<!DOCTYPE svg PUBLIC "-//W3C//DTD SVG 20010904//EN"
 "http://www.w3.org/TR/2001/REC-SVG-20010904/DTD/svg10.dtd">
<svg version="1.0" xmlns="http://www.w3.org/2000/svg"
 width="723.000000pt" height="723.000000pt" viewBox="0 0 723.000000 723.000000"
 preserveAspectRatio="xMidYMid meet">
<metadata>
Created by potrace 1.14, written by Peter Selinger 2001-2017
</metadata>
<g transform="translate(0.000000,723.000000) scale(0.100000,-0.100000)"
fill="#000000" stroke="none">
<path d="M3659 7016 c-2 -2 -53 -7 -114 -11 -60 -3 -123 -8 -140 -10 -16 -2
-59 -7 -95 -10 -36 -3 -76 -8 -90 -10 -14 -3 -44 -7 -67 -10 -87 -12 -162 -24
-193 -30 -22 -4 -61 -12 -113 -21 -10 -2 -26 -5 -35 -8 -9 -3 -33 -7 -52 -10
-52 -8 -388 -94 -408 -105 -9 -5 -19 -9 -22 -9 -3 1 -32 -7 -65 -17 -33 -10
-62 -19 -65 -20 -71 -20 -191 -61 -350 -121 -8 -3 -17 -6 -20 -6 -3 -1 -30
-12 -60 -26 -69 -31 -104 -45 -110 -46 -11 -2 -319 -158 -370 -188 -30 -17
-81 -48 -113 -70 -32 -21 -61 -38 -63 -38 -3 0 -10 -5 -17 -10 -29 -25 -57
-46 -78 -60 -49 -33 -227 -190 -279 -247 -100 -110 -118 -131 -151 -180 -18
-26 -36 -50 -39 -53 -11 -9 -77 -124 -119 -206 -40 -80 -108 -268 -116 -322
-2 -15 -9 -56 -14 -92 -11 -68 -8 -267 4 -310 21 -74 50 -160 68 -195 48 -97
133 -202 223 -275 48 -39 233 -138 259 -139 3 0 29 -7 59 -16 103 -30 178 -39
326 -39 149 0 258 12 317 35 16 6 29 10 31 10 1 -1 3 -1 5 0 1 0 11 2 23 4 48
10 359 117 371 128 11 12 43 7 43 -6 0 -7 12 -29 27 -48 85 -106 199 -186 322
-222 81 -24 251 -30 336 -12 86 18 212 61 255 86 8 5 22 12 30 15 14 5 88 43
135 68 11 6 22 14 25 17 3 3 16 12 30 19 26 13 210 142 245 171 267 224 420
377 643 642 46 56 19 44 -46 -21 -38 -37 -95 -89 -127 -117 -32 -27 -66 -57
-74 -65 -13 -12 -73 -59 -196 -153 -40 -30 -166 -117 -171 -117 -3 0 -20 -11
-38 -25 -18 -14 -36 -25 -40 -25 -5 0 -20 -9 -35 -19 -24 -18 -228 -124 -241
-126 -3 -1 -23 -9 -45 -19 -47 -21 -171 -66 -200 -72 -81 -19 -155 -30 -180
-28 -119 8 -183 33 -246 97 -37 38 -86 123 -77 133 2 2 44 28 92 59 339 213
548 461 584 695 10 65 -4 143 -34 183 -10 15 -43 39 -73 54 -84 42 -200 38
-343 -12 -229 -80 -428 -262 -540 -495 -40 -84 -53 -117 -67 -175 -22 -86 -24
-104 -24 -207 l-1 -108 -81 -29 c-201 -73 -441 -103 -575 -73 -58 13 -176 64
-190 81 -3 4 -17 14 -33 24 -41 27 -115 125 -139 187 -38 101 -54 259 -34 362
60 322 341 733 691 1013 27 22 58 48 69 57 36 33 241 175 326 227 47 28 92 56
100 61 15 10 329 164 365 180 11 5 49 21 85 35 36 14 74 30 85 35 11 5 67 25
125 46 58 20 119 41 135 48 17 6 32 11 35 11 3 1 32 9 65 20 73 22 45 15 260
69 99 26 194 49 210 51 17 3 77 15 135 25 105 20 119 22 220 35 30 4 66 8 80
11 43 7 193 18 252 18 32 1 58 4 58 7 0 3 108 5 239 5 132 -1 239 0 237 1 -4
4 -101 21 -158 27 -27 3 -67 8 -90 11 -24 3 -72 8 -108 11 -72 7 -655 15 -661
10z m-752 -1699 c32 -32 12 -123 -44 -209 -39 -59 -148 -175 -223 -238 -23
-19 -54 -47 -71 -61 -29 -26 -160 -121 -212 -154 l-29 -18 7 54 c11 97 56 242
103 334 72 141 193 254 321 300 47 17 128 13 148 -8z"/>
<path d="M6180 6948 c20 -74 23 -110 24 -268 1 -163 -3 -211 -23 -300 -5 -25
-12 -56 -15 -70 -13 -69 -103 -282 -149 -354 -6 -11 -27 -45 -46 -75 -19 -31
-37 -58 -41 -61 -3 -3 -17 -22 -29 -43 -22 -36 -27 -38 -55 -32 -17 4 -40 9
-51 10 -11 2 -21 4 -22 5 -3 3 -7 4 -53 13 -126 25 -409 26 -490 2 -8 -2 -28
-7 -45 -10 -96 -16 -156 -36 -261 -86 -171 -82 -302 -205 -372 -349 -31 -65
-36 -86 -39 -160 -2 -61 2 -94 12 -114 8 -15 15 -34 15 -41 0 -20 93 -109 140
-133 95 -48 290 -68 455 -48 70 8 207 41 250 60 17 7 46 19 65 26 56 22 192
103 261 155 70 53 203 183 260 255 l36 44 42 -39 c107 -101 185 -237 224 -393
19 -74 23 -115 22 -205 -3 -122 -6 -142 -36 -262 -18 -75 -26 -101 -45 -150
-4 -11 -8 -22 -9 -25 -13 -48 -14 -48 -73 -42 -73 9 -344 8 -402 -1 -60 -10
-196 -44 -240 -61 -19 -8 -38 -14 -43 -14 -4 -1 -47 -19 -95 -42 -394 -186
-613 -498 -529 -753 24 -72 96 -154 164 -186 26 -13 55 -27 63 -31 75 -37 346
-46 475 -16 11 2 41 9 68 15 58 14 156 47 217 74 25 11 51 21 58 23 8 1 21 9
30 16 10 8 37 24 62 37 25 13 59 34 77 47 17 13 36 24 41 24 6 0 12 3 14 8 2
4 28 27 58 50 77 61 149 130 211 204 30 35 56 65 59 68 3 3 15 20 26 38 l21
34 28 -28 c87 -87 150 -233 182 -424 16 -97 7 -472 -13 -575 -3 -11 -7 -36
-10 -55 -9 -61 -44 -192 -75 -280 -62 -175 -126 -310 -238 -499 -55 -93 -144
-226 -152 -229 -5 -2 -9 -8 -9 -13 0 -9 -150 -205 -207 -270 -224 -256 -414
-426 -708 -637 -50 -36 -157 -102 -164 -102 -5 0 -16 -7 -24 -15 -14 -14 -226
-123 -317 -163 -116 -52 -399 -153 -465 -167 -11 -2 -62 -15 -112 -29 -51 -14
-103 -28 -115 -30 -13 -2 -47 -10 -76 -16 -69 -15 -84 -18 -100 -19 -7 -1 -10
-6 -7 -11 6 -10 477 -7 587 4 66 6 157 16 193 22 17 2 49 6 70 9 22 2 40 4 40
5 0 1 9 3 20 4 11 2 34 6 50 9 17 4 46 9 65 12 55 9 83 14 110 21 14 3 32 7
40 8 9 1 21 5 28 10 6 4 12 5 12 3 0 -3 39 6 88 20 48 14 94 26 102 27 8 1 33
9 55 16 22 8 42 15 45 15 20 3 117 40 128 48 6 5 12 7 12 3 0 -3 26 6 58 20
31 14 62 27 67 28 6 1 29 12 53 24 23 12 42 19 42 15 0 -5 4 -3 8 2 4 6 43 28
86 50 120 60 287 161 294 178 2 4 10 7 18 7 8 0 14 5 14 10 0 6 6 10 14 10 8
0 16 4 18 8 2 5 21 22 43 38 23 16 47 35 55 41 8 7 38 32 65 55 101 87 262
255 352 369 157 198 344 556 399 764 2 6 14 47 28 92 14 45 27 99 30 119 4 20
8 39 10 43 2 3 7 31 11 61 4 30 8 57 10 60 18 29 27 470 11 570 -50 334 -125
549 -261 750 -60 90 -235 269 -263 270 -4 0 -20 12 -36 26 -27 24 -28 29 -18
57 12 36 32 109 39 147 8 39 11 55 13 55 12 0 16 272 5 355 -9 68 -35 188 -56
255 -21 67 -78 203 -92 223 -5 7 -19 30 -31 52 -52 97 -185 253 -274 320 -18
14 -43 33 -54 43 -12 9 -25 17 -31 17 -10 0 0 51 12 60 8 6 60 139 90 230 75
233 96 510 56 735 -2 11 -4 20 -5 20 -1 0 -3 11 -5 25 -2 14 -13 57 -25 95
-38 120 -126 284 -100 183z m-665 -1373 c36 -4 105 -19 145 -29 8 -3 21 -5 28
-5 28 -2 7 -32 -80 -118 -126 -123 -261 -233 -288 -233 -5 0 -10 -3 -10 -7 0
-7 -66 -41 -150 -76 -131 -56 -327 -76 -407 -41 -157 68 -53 318 180 433 45
22 93 42 107 45 14 3 43 10 65 16 22 5 67 13 100 16 33 4 61 8 63 9 5 4 203
-4 247 -10z m460 -1559 c11 -2 27 -5 35 -5 8 -1 21 -5 29 -10 20 -13 -37 -87
-169 -220 -121 -122 -225 -195 -392 -275 -293 -142 -492 -123 -483 44 7 148
214 329 480 419 87 29 102 33 190 47 22 3 41 7 42 8 4 4 248 -3 268 -8z"/>
<path d="M3655 4025 c-5 -2 -44 -11 -85 -20 -41 -10 -79 -20 -85 -23 -5 -4
-15 -7 -21 -8 -29 -4 -181 -88 -247 -134 -84 -61 -238 -213 -287 -285 -18 -27
-36 -52 -39 -55 -27 -23 -124 -228 -151 -318 -12 -39 -27 -75 -32 -78 -9 -6
-181 -55 -239 -68 -8 -2 -74 -21 -145 -41 -71 -20 -136 -38 -144 -40 -8 -2
-40 -11 -70 -20 -30 -9 -62 -18 -72 -20 -44 -10 -414 -138 -422 -146 -6 -5
-17 -9 -25 -9 -9 -1 -34 -9 -56 -20 -22 -11 -43 -19 -46 -20 -3 0 -37 -14 -75
-32 -38 -17 -71 -32 -74 -33 -53 -13 -415 -220 -485 -277 -5 -5 -28 -22 -50
-39 -158 -119 -261 -217 -407 -387 -15 -17 -56 -73 -92 -124 -202 -294 -303
-596 -303 -911 0 -70 4 -149 9 -175 4 -26 11 -60 13 -77 9 -57 28 -120 43
-140 13 -18 13 -17 6 15 -7 37 -7 235 1 285 3 17 7 46 9 67 17 127 108 381
179 493 157 252 312 414 565 594 69 49 309 201 317 201 2 0 28 14 57 31 83 49
406 209 422 209 3 0 29 11 58 24 198 89 1007 377 1009 358 0 -4 2 -29 4 -57 3
-52 13 -133 21 -175 2 -14 7 -38 9 -55 3 -16 8 -41 10 -55 13 -62 15 -77 20
-110 3 -19 11 -67 18 -106 l13 -71 -101 -34 c-55 -18 -107 -37 -115 -41 -8 -4
-44 -19 -80 -34 -67 -27 -207 -95 -272 -132 -290 -166 -525 -426 -608 -672
-46 -138 -45 -279 3 -393 9 -20 16 -40 16 -44 -1 -3 3 -9 8 -12 4 -3 20 -22
34 -41 40 -53 70 -83 119 -122 47 -36 175 -104 213 -113 12 -2 48 -11 80 -19
142 -35 321 -38 462 -6 322 72 559 257 718 561 46 88 112 275 118 334 0 2 4
19 9 36 29 101 32 417 6 578 -9 58 -19 108 -22 112 -5 8 194 76 281 95 6 1 35
9 65 18 30 8 70 18 89 21 19 3 37 8 41 10 6 4 34 10 85 20 11 2 29 5 40 8 11
2 36 7 55 11 19 3 44 8 55 10 57 11 158 24 199 25 41 1 25 12 -26 19 -91 12
-464 3 -558 -13 -25 -4 -133 -16 -160 -17 -8 -1 -59 -8 -112 -18 -94 -16 -100
-15 -107 12 -1 4 -17 50 -36 103 -19 52 -32 95 -28 95 3 0 0 6 -6 14 -7 8 -14
22 -16 32 -2 11 -15 53 -30 94 -26 76 -59 199 -70 257 -5 29 -2 34 29 48 19 9
40 18 48 19 84 18 551 272 566 308 2 5 8 8 13 8 11 0 14 2 93 72 98 88 145
143 188 223 30 54 33 69 33 140 0 88 -11 117 -66 175 -34 36 -91 68 -164 91
-35 11 -192 21 -220 14z m225 -231 c19 -8 38 -20 42 -27 36 -57 -53 -187 -197
-286 -78 -54 -283 -156 -334 -167 -7 -1 -36 -11 -65 -22 -74 -29 -90 -35 -101
-37 -5 -2 -23 -6 -39 -10 -26 -7 -28 -6 -21 15 16 51 101 208 141 260 35 47
125 136 176 176 110 86 308 135 398 98z m-1086 -1956 c-6 -117 -15 -223 -25
-273 -5 -27 -11 -63 -14 -80 -14 -107 -97 -298 -173 -400 -77 -102 -215 -202
-304 -219 -13 -2 -41 -8 -63 -14 -22 -5 -63 -7 -90 -5 -28 2 -58 3 -68 4 -36
1 -126 48 -161 84 -110 113 -47 322 151 505 78 71 346 257 423 293 8 4 31 17
50 28 45 28 262 139 271 139 3 0 5 -28 3 -62z"/>
</g>
</svg>
