<svg xmlns="http://www.w3.org/2000/svg" width="94.56" height="10.76" viewBox="0 0 94.56 10.76"><defs><style>.cls-1{fill:#fbd03b;}</style></defs><g id="レイヤー_2" data-name="レイヤー 2"><g id="レイヤー_1-2" data-name="レイヤー 1"><path class="cls-1" d="M0,10.76V0H2.28c2.26,0,3.3,1.11,3.3,2.62A2.49,2.49,0,0,1,4.2,4.89,2.85,2.85,0,0,1,6.46,7.68c0,1.6-1.24,3.08-3.51,3.08ZM1.08,4.51H1.8a3.41,3.41,0,0,0,1.89-.4,1.78,1.78,0,0,0,.76-1.49c0-1-.72-1.57-2-1.57H1.08Zm0,5.2h1.3c.47,0,.93-.07,1.29-.1A2,2,0,0,0,5.34,7.69,2,2,0,0,0,4.29,6a5.2,5.2,0,0,0-2.48-.41H1.08Z"/><path class="cls-1" d="M8.41,6.57a2.43,2.43,0,0,0,2.4,2.53,2.67,2.67,0,0,0,2.43-1.52l.69.36a3.19,3.19,0,0,1-3,1.9A3.23,3.23,0,0,1,7.57,6.52a3.28,3.28,0,0,1,3.27-3.37,3.24,3.24,0,0,1,3.3,3.42Zm4.83-.72a2.33,2.33,0,0,0-2.38-1.91A2.35,2.35,0,0,0,8.49,5.85Z"/><path class="cls-1" d="M21.21,3.32H22V9.69h-.8V8.6a3.21,3.21,0,0,1-2.57,1.24,3.3,3.3,0,0,1-3.26-3.35,3.31,3.31,0,0,1,3.29-3.34,3,3,0,0,1,2.54,1.33Zm-5,3.19A2.55,2.55,0,0,0,18.73,9.1a2.51,2.51,0,0,0,2.54-2.57,2.53,2.53,0,1,0-5.05,0Z"/><path class="cls-1" d="M28.5,3.32h.86v3.3c0,2.14-1,3.22-2.8,3.22s-2.8-1.08-2.8-3.22V3.32h.86V6.43A4.07,4.07,0,0,0,24.8,8a1.85,1.85,0,0,0,1.76,1A2,2,0,0,0,28,8.49c.51-.54.5-1.15.5-2.06Z"/><path class="cls-1" d="M31.89.94h.82V3.32H34V4H32.71V9.69h-.82V4H30.77V3.32h1.12Z"/><path class="cls-1" d="M36.2,1.36a.69.69,0,0,1-.68.69.68.68,0,0,1-.67-.69.67.67,0,0,1,.67-.67A.68.68,0,0,1,36.2,1.36Zm-1.08,2h.82V9.69h-.82Z"/><path class="cls-1" d="M38,2.32c0-1,.26-1.64,1.3-1.64a3.13,3.13,0,0,1,.93.18v.8a1.88,1.88,0,0,0-.76-.19c-.67,0-.65.41-.65,1v.86h1.34V4H38.83V9.69H38V4h-.84V3.32H38Z"/><path class="cls-1" d="M46,3.32h.86v3.3c0,2.14-1,3.22-2.79,3.22s-2.81-1.08-2.81-3.22V3.32h.86V6.43A4.07,4.07,0,0,0,42.33,8a1.85,1.85,0,0,0,1.77,1,2,2,0,0,0,1.44-.56A2.7,2.7,0,0,0,46,6.43Z"/><path class="cls-1" d="M48.57.86h.82V9.69h-.82Z"/><path class="cls-1" d="M61.81,0h1.11l2.19,7.75L68.19,0h.23l3,7.75L73.7,0h1.09L71.7,10.76h-.21L68.31,2.62l-3.26,8.14h-.2Z"/><path class="cls-1" d="M82.72,4.24a2,2,0,0,1,1.64-1.09,1.23,1.23,0,0,1,.73.22l-.43.69a.92.92,0,0,0-.43-.12c-.6,0-1.14.52-1.38,1.39a8.68,8.68,0,0,0-.13,1.93V9.69h-.86V3.32h.86Z"/><path class="cls-1" d="M85.67.86h.82V9.69h-.82Z"/><path class="cls-1" d="M93.74,8.6a3.21,3.21,0,0,1-2.56,1.24,3.3,3.3,0,0,1-3.27-3.35A3.31,3.31,0,0,1,91.2,3.15a3,3,0,0,1,2.54,1.33V.86h.82V9.69h-.82Zm-5-2.09A2.55,2.55,0,0,0,91.26,9.1a2.5,2.5,0,0,0,2.53-2.57,2.52,2.52,0,1,0-5,0Z"/><path class="cls-1" d="M80.43,5.2a3.37,3.37,0,0,0-1.22-1.47,3.35,3.35,0,0,0-5,4.08,3.4,3.4,0,0,0,3.09,2.05A3.36,3.36,0,0,0,80.43,5.2Zm-3.28-.37s.14,0,.11.1.09.13.13.19.1.19,0,.16-.09.07-.18,0,.11-.23,0-.23S77.11,4.87,77.15,4.83Zm-.1.19h0c.11,0,.12.15.06.19s-.11,0-.09-.08S76.93,5.05,77.05,5Zm-2.43.34a3.29,3.29,0,0,1,.29-.52s.08,0,.14-.09l.2.24s0,0,0,.08a.07.07,0,0,0,.11,0l.08.14a.68.68,0,0,1-.23.07.34.34,0,0,0-.31.07c.05.07.1,0,.15,0s0,.2.11.21L75,5.67s-.07,0,0-.09l-.09,0c0,.09-.1,0-.14.1s0,.1,0,.13-.12.21-.24.3l-.07,0A2.75,2.75,0,0,1,74.62,5.36ZM75,6.77h0s.08,0,.09,0S75,6.77,75,6.77Zm-.3,0h0l0,0s.24,0,.2,0-.25,0-.24,0,0,0,0,0Zm-.26-.16.21.07s0,0,0,0h0s-.15.05-.14,0,0,0,0,0l-.1,0Zm.06.17s.12,0,.07,0h0S74.44,6.76,74.45,6.74Zm1.73,1.2a.26.26,0,0,0-.07.18c0,.12,0,.34-.15.35s-.27.18-.33.34l0,.07a2.7,2.7,0,0,1-.7-.73,2.78,2.78,0,0,1-.44-1,.07.07,0,0,1,0,.07h0s.18-.27.17-.11.08,0,.14-.06.09.1.16.07.14,0,.2.08.25.07.34.13a.25.25,0,0,1,.1.21s.16,0,.19,0,0,0,0,.07.06,0,.08,0a.57.57,0,0,1,.26.08C76.28,7.8,76.24,7.88,76.18,7.94Zm.37-3.57s0,0,.06,0a.18.18,0,0,1,.1,0s.27,0,.2.09h0c-.1.1-.17.07-.29.07S76.45,4.39,76.55,4.37Zm2.88,4c0,.15,0,.18-.17.23a1.1,1.1,0,0,1,0-.36s.19-.18.21-.21C79.51,8.16,79.47,8.24,79.43,8.37Zm.86-1.75-.09-.11c-.06-.06-.22,0-.31,0s-.1,0-.13-.07-.07,0-.11,0-.16-.18-.26-.12a1.06,1.06,0,0,0,.17.23c.09,0,.07-.09.17-.06a.34.34,0,0,0,0,.1c.29-.08,0,.3-.1.27s0,0-.06.06L79.4,7c-.07,0-.14.08-.18,0a3.41,3.41,0,0,0-.28-.5.45.45,0,0,1-.09-.1h0s0,0-.08,0,.09.19.13.26.08.21.15.3.07.05.1.09.07.14.1.15.23,0,.29-.07-.1.33-.17.36a.59.59,0,0,0-.27.25L79,7.75l0,.19s0,.26,0,.28-.18.09-.19.27a.49.49,0,0,1-.13.23c-.08.09-.14.21-.26.22L78.16,9a.25.25,0,0,0,0-.19A.27.27,0,0,1,78,8.59c0-.11-.16-.28-.13-.38a.66.66,0,0,0,0-.48c0-.06-.1-.1-.11-.15a.74.74,0,0,1,0-.21.19.19,0,0,1-.19,0c-.06-.05-.12,0-.19,0a.5.5,0,0,1-.21,0c-.06,0-.13,0-.18,0s-.23-.28-.3-.36,0-.25,0-.35.17-.27.26-.33,0-.11.08-.15a.29.29,0,0,1,.16-.11,2.88,2.88,0,0,0,.4-.09l.23,0s.08.11,0,.14.19.06.2.09.13.07.2.08c0-.18.14,0,.23,0s.12,0,.18,0a1.16,1.16,0,0,1,.18,0h0A.5.5,0,0,0,78.88,6c-.06,0-.24.06-.29,0a.33.33,0,0,1-.07-.13c0-.05,0-.05,0-.08s.35,0,.53-.07a.24.24,0,0,0-.1-.14c-.07-.06,0-.06,0-.15l-.14,0s0,0,0,.07-.08-.07-.16-.08-.09.11-.13.15,0,.11-.06.14-.09.07-.16,0,.08.06.07.12l-.07,0s0,.06,0,.08a.35.35,0,0,1-.17-.24c0-.07-.19-.17-.25-.22-.1.11.17.16.2.26a1.56,1.56,0,0,1-.06.15c-.07,0,0-.1-.08-.12s-.2-.25-.27-.19-.07,0-.15,0,0,.1-.08.11,0,.08-.11.14a.21.21,0,0,1-.18.06C77,6,77,5.92,77,5.74s.19-.09.32-.09,0-.12,0-.15-.11,0-.14-.09c.19,0,.24-.13.39-.23s.17-.07.17-.09,0-.2.06-.19,0,.16,0,.17.16.06.17,0,.13,0,.22,0,.07-.15.09-.18.09,0,.07-.1.19,0,.22,0-.12-.06-.16,0-.16,0-.18-.06.06-.16.09-.17.1-.08,0-.14-.08.11-.09.12-.3.14-.12.29a.08.08,0,0,0-.08.09c0,.1,0,.09-.09.11s-.1-.14-.13-.21-.2.18-.25,0,.07-.19.17-.24.17-.2.22-.28,0-.06.06-.1a.28.28,0,0,1,.15-.06c.06,0,.1-.08.15-.08h.23c.09,0,0,0,.06.06l.21.07c.07,0,.23.09.18.16s-.22,0-.27-.05,0,.07.08.12,0,.06,0,.07l.08,0c.06,0,0-.11,0-.08s.06,0,.12,0a.1.1,0,0,1,.16-.07V4.25a2.67,2.67,0,0,1,.55.61,2.9,2.9,0,0,1,.51,1.65Z"/><path class="cls-1" d="M74.65,6.73Z"/><path class="cls-1" d="M79.66,5.77s-.08-.07-.08-.08l-.08-.1c.08,0,.1,0,.1-.12s-.34.07-.2.23.08.07.08.1,0,0,0,.07,0,.09.15.13a.19.19,0,0,0,.08,0,.75.75,0,0,1-.06-.13S79.67,5.81,79.66,5.77Z"/><path class="cls-1" d="M59.22,8.74a.51.51,0,0,0,.09-.53L57.85,5c1.32-1.33,2.07-2.4,1.71-2.75s-1.43.39-2.75,1.71L53.55,2.45a.49.49,0,0,0-.53.09l-.32.3a.2.2,0,0,0-.07.18.27.27,0,0,0,.11.18L55.5,5.25c-1,1-1.5,1.6-1.5,1.6l-.92-.33a.26.26,0,0,0-.3.06l-.11.11a.3.3,0,0,0-.08.2.25.25,0,0,0,.09.2l.83.74c-.15.2-.19.41-.1.51s.31.05.52-.1l.74.83a.3.3,0,0,0,.19.1.28.28,0,0,0,.2-.08L55.18,9a.28.28,0,0,0,.06-.3l-.33-.92s.58-.53,1.6-1.5c.47.65,2,2.77,2,2.77a.24.24,0,0,0,.19.1.2.2,0,0,0,.18-.06Z"/></g></g></svg>