<?xml version="1.0" encoding="UTF-8"?><svg id="_レイヤー_2" xmlns="http://www.w3.org/2000/svg" viewBox="0 0 439.58 303.45"><defs><style>.cls-1{fill:#fff;}</style></defs><g id="txt"><path class="cls-1" d="m439.57,3.16c-94.44,10.2-203.51,37.55-282.67,91.03-14.75,10.05-28.49,20.99-41.11,33.39-23.19,22.87-42.66,49.43-56.87,78.68-4.38,9.43-12.44,27.77-5.56,36.93,6.88,9.23,21.24,13.27,32.78,15.11,8.3,1.14,17.16,1.69,25.58.42,2.69-.45,6.07-1.11,8.68-1.67,40.99-9,82.3-27.17,115.55-52.9,8.79-7.25,18.61-14.62,24.48-24.23,5.21-8.25,3.71-19.4-7.48-20.55-6.69-.77-14.32,3.23-19.57,7.82-12.89,11.61-19.45,28.34-25.62,44.24-2.54,7.05-5.89,15.22-7.32,22.51-4.99,25.21,15.98,38.92,38.8,37.57,25.71-1.69,58.85-20.22,80.84-33.98,21.08-13.4,41.24-28.83,61.12-45.19l.75.67c-16.08,24.45-35.79,46.51-57.96,65.74-2.54,2.1-5.05,4.25-7.65,6.31-21.23,16.53-46.38,33.01-73.7,37.44-34.97,5.56-70.33-13.01-78.1-49.13-3.54-16.53-.53-32.94,6.7-47.74,9.06-19.41,22.9-36.96,40.87-48.97,8.17-5.48,17.43-9.77,27.18-11.44,26.27-4.44,43.2,14.99,34.13,40.38-9.51,26.68-32.87,43.99-55.54,58.92-31.05,19.46-65.32,33.87-101.13,41.83-17.76,3.81-35.41,6.56-53.85,4.43-51.85-5.6-73.17-46.92-58.27-95.11,7.06-22.41,18.31-43.62,32.24-62.48,14.82-19.91,32.92-36.91,52.89-51.42C152.45,36.24,228.58,14.73,304.3,5.14,336.41,1.27,368.78-.48,401.07.11c12.87.25,25.72.79,38.51,2.04v1h-.01Z"/></g></svg>