<?xml version="1.0" encoding="UTF-8"?><svg id="_レイヤー_2" xmlns="http://www.w3.org/2000/svg" viewBox="0 0 430.74 353.78"><defs><style>.cls-1{fill:#291f1f;}</style></defs><g id="_パーツ"><path class="cls-1" d="m7.02,352.04c-10.43-28.24-8.5-60.08.97-88.39,20.26-58.38,70.87-101.78,126.03-126.5,66.7-31.2,139.24-40.92,207.46-66.66,18.62-7.42,37.7-16.47,48.87-33.3,3.05-5.1,5.07-11.71-2.42-14.15-7.66-2.55-16.31-1.04-24.28,1.83-5.67,2.09-11.13,5.07-16.1,8.75-12.61,9.24-22.1,22.46-28.44,36.69-6.11,13.43-7.95,27.8-5.15,42.18,3.37,17.88,12.65,39.44,18.45,58.88,4.93,15.28,8.7,32.67,9.1,48.88,2.99,55.27-22.67,113.33-79.85,129.53-33.63,9.75-81.25,2.55-99.04-31.05-11.23-21.58-2.91-46.73,9.99-65.01,20.18-30.08,51.42-48.22,84.16-60.8,41.71-15.61,85.76-24.32,130.05-27.29,14.63-.82,29.35-.91,43.92.53,0,0,0,1,0,1-28.89,3.02-56.93,9.87-84.25,18.37-23.8,7.49-46.86,16.77-69.22,27.66-21.62,10.38-42.57,22.39-61.93,36.46-5.19,3.85-10.23,7.94-14.7,12.5-15.09,15.42-27.02,41.37-3.38,52.57,14.88,6.84,33.76,2.66,46.75-6.67,12.8-9.01,21.19-22.5,26.62-36.97,5.72-14.89,8.13-33.43,8.63-50.17.22-12.86.5-24.37-1.18-37.29-3.03-22.45-9.54-44.89-8.95-68.43.06-34.75,18.28-67.45,44.07-89.88,21.24-18.45,56.02-33.67,83.43-20.12,10.39,5.34,16.55,16.52,13.93,28.17-5.89,26.64-47.4,50.33-70.22,61.59-10.06,4.83-20.51,8.96-30.92,12.79-67.34,24.4-136.73,42.04-198.1,78.76-23.68,13.78-46.55,29.38-64.87,49.88-25.67,28.16-41.56,66.08-39.61,104.64.19,3.57.49,7.19,1.14,10.71l-.95.3h0Z"/></g></svg>